<svg width="43" height="42" viewBox="0 0 43 42" fill="none" xmlns="http://www.w3.org/2000/svg">
<path d="M7.60957 0.839996C3.75129 0.839996 0.602394 3.85984 0.602394 7.56V34.44C0.602394 38.1402 3.75129 41.16 7.60957 41.16H35.6383C39.4966 41.16 42.6455 38.1402 42.6455 34.44V7.56C42.6455 3.85984 39.4966 0.839996 35.6383 0.839996H7.60957ZM7.60957 2.76H35.6383C38.4148 2.76 40.6434 4.89727 40.6434 7.56V34.44C40.6434 37.1027 38.4148 39.24 35.6383 39.24H7.60957C4.83306 39.24 2.60445 37.1027 2.60445 34.44V7.56C2.60445 4.89727 4.83306 2.76 7.60957 2.76ZM9.69765 9.48L18.9298 22.0594L9.61163 32.52H12.1142L20.0598 23.5987L26.6056 32.52H34.5512L24.4159 18.7087L32.6352 9.48H30.1327L23.2858 17.1694L17.6433 9.48H9.69765ZM13.5297 11.4H16.5973L30.7192 30.6H27.6516L13.5297 11.4Z" fill="white"/>
</svg>
